<svg width="79" height="81" viewBox="0 0 79 81" fill="none" xmlns="http://www.w3.org/2000/svg">
<path d="M19.6349 43.1039L19.1712 56.7687L14.0713 53.2619L8.97138 56.1688L10.0227 41.5219L2.80052 40.5199V71.2245L29.4038 74.2765V44.1981L19.6349 43.1039ZM63.9214 3.92227C64.1956 3.86953 64.4764 3.92227 64.7115 4.06729C65.1098 4.23208 65.3906 4.62759 65.3971 5.09561L65.6257 36.7296L77.3079 38.2787C77.5821 38.226 77.8629 38.2787 78.098 38.4237C78.4963 38.5885 78.7771 38.984 78.7837 39.452L79.0122 71.8771C79.0318 72.2726 78.8359 72.6681 78.4767 72.8856L65.358 80.7826C65.1751 80.921 64.94 81.0067 64.6919 81.0067C64.6331 81.0067 64.5678 81.0001 64.5156 80.9936L30.4747 77.1703C30.3898 77.1637 30.3114 77.1505 30.2331 77.1308L1.06354 73.3471C0.47584 73.3207 0.0122098 72.8263 0.0122098 72.2331V39.2543C-0.000850174 38.8126 0.24729 38.3842 0.67174 38.1996L16.0303 31.3771V8.72769C16.0173 8.28604 16.2654 7.85757 16.6898 7.673L33.7658 0.0924355C33.9421 0.0133339 34.1445 -0.0196251 34.3535 0.00674211L63.9214 3.92227ZM64.5678 38.839L54.3027 45.0221L64.496 46.3339L74.2584 40.1244L64.5678 38.839ZM16.0303 36.6769V33.8161L5.13826 38.6479L11.3875 39.452L16.0303 36.6769ZM52.409 14.39V43.5653L62.2105 37.6591L63.4055 36.6374L63.1965 7.52798L52.409 14.39ZM49.6011 44.2838V14.1066L35.6726 12.2345L35.1959 26.2421L30.0959 22.7353L24.996 25.6422L26.0473 10.9953L18.2375 9.98672V40.6913L49.6011 44.2838ZM47.8967 4.05411L37.1875 10.1911L51.116 11.984L60.8784 5.77456L47.8967 4.05411ZM27.4186 8.92544L37.8013 2.70938L34.3796 2.25454L21.1694 8.11465L27.4186 8.92544ZM65.7889 48.7399V77.9152L76.792 71.2904L76.5765 41.8778L65.7889 48.7399ZM62.981 78.6337V48.4564L49.0525 46.5844L48.5759 60.5919L43.4759 57.0851L38.376 59.9921L39.4273 45.3451L32.2051 44.6332V75.3378L62.981 78.6337Z" fill="white"/>
</svg>
