<svg width="72" height="72" viewBox="0 0 72 72" fill="none" xmlns="http://www.w3.org/2000/svg">
<g clip-path="url(#clip0)">
<path d="M47.8184 2.77148C47.8184 1.24219 49.3301 0 51.1992 0C53.0684 0 54.5801 1.24219 54.5801 2.77148V14.9121C54.5801 16.4414 53.0684 17.6836 51.1992 17.6836C49.3301 17.6836 47.8184 16.4414 47.8184 14.9121V2.77148ZM38.7363 60.8262C38.5371 60.8262 38.3789 59.9883 38.3789 58.9512C38.3789 57.9141 38.5371 57.0762 38.7363 57.0762H47.9883C48.1875 57.0762 48.3457 57.9141 48.3457 58.9512C48.3457 59.9883 48.1875 60.8262 47.9883 60.8262H38.7363ZM9.28711 39.3105C9.08789 39.3105 8.92969 38.4727 8.92969 37.4355C8.92969 36.3984 9.08789 35.5605 9.28711 35.5605H18.5391C18.7383 35.5605 18.8965 36.3984 18.8965 37.4355C18.8965 38.4727 18.7383 39.3105 18.5391 39.3105H9.28711ZM24.0117 39.3105C23.8125 39.3105 23.6543 38.4727 23.6543 37.4355C23.6543 36.3984 23.8125 35.5605 24.0117 35.5605H33.2637C33.4629 35.5605 33.6211 36.3984 33.6211 37.4355C33.6211 38.4727 33.4629 39.3105 33.2637 39.3105H24.0117ZM38.7363 39.3105C38.5371 39.3105 38.3789 38.4727 38.3789 37.4355C38.3789 36.3984 38.5371 35.5605 38.7363 35.5605H47.9883C48.1875 35.5605 48.3457 36.3984 48.3457 37.4355C48.3457 38.4727 48.1875 39.3105 47.9883 39.3105H38.7363ZM53.4668 39.3105C53.2676 39.3105 53.1094 38.4727 53.1094 37.4355C53.1094 36.3984 53.2676 35.5605 53.4668 35.5605H62.7188C62.918 35.5605 63.0762 36.3984 63.0762 37.4355C63.0762 38.4727 62.918 39.3105 62.7188 39.3105H53.4668ZM9.28711 50.0684C9.08789 50.0684 8.92969 49.2305 8.92969 48.1934C8.92969 47.1562 9.08789 46.3184 9.28711 46.3184H18.5391C18.7383 46.3184 18.8965 47.1562 18.8965 48.1934C18.8965 49.2305 18.7383 50.0684 18.5391 50.0684H9.28711ZM24.0117 50.0684C23.8125 50.0684 23.6543 49.2305 23.6543 48.1934C23.6543 47.1562 23.8125 46.3184 24.0117 46.3184H33.2637C33.4629 46.3184 33.6211 47.1562 33.6211 48.1934C33.6211 49.2305 33.4629 50.0684 33.2637 50.0684H24.0117ZM38.7363 50.0684C38.5371 50.0684 38.3789 49.2305 38.3789 48.1934C38.3789 47.1562 38.5371 46.3184 38.7363 46.3184H47.9883C48.1875 46.3184 48.3457 47.1562 48.3457 48.1934C48.3457 49.2305 48.1875 50.0684 47.9883 50.0684H38.7363ZM53.4668 50.0684C53.2676 50.0684 53.1094 49.2305 53.1094 48.1934C53.1094 47.1562 53.2676 46.3184 53.4668 46.3184H62.7188C62.918 46.3184 63.0762 47.1562 63.0762 48.1934C63.0762 49.2305 62.918 50.0684 62.7188 50.0684H53.4668ZM9.28711 60.8262C9.08789 60.8262 8.92969 59.9883 8.92969 58.9512C8.92969 57.9141 9.08789 57.0762 9.28711 57.0762H18.5391C18.7383 57.0762 18.8965 57.9141 18.8965 58.9512C18.8965 59.9883 18.7383 60.8262 18.5391 60.8262H9.28711ZM24.0117 60.8262C23.8125 60.8262 23.6543 59.9883 23.6543 58.9512C23.6543 57.9141 23.8125 57.0762 24.0117 57.0762H33.2637C33.4629 57.0762 33.6211 57.9141 33.6211 58.9512C33.6211 59.9883 33.4629 60.8262 33.2637 60.8262H24.0117ZM17.3496 2.77148C17.3496 1.24219 18.8613 0 20.7305 0C22.5996 0 24.1113 1.24219 24.1113 2.77148V14.9121C24.1113 16.4414 22.5996 17.6836 20.7305 17.6836C18.8613 17.6836 17.3496 16.4414 17.3496 14.9121V2.77148ZM3.75 26.5547H68.2441V12.5801C68.2441 12.1113 68.0508 11.6836 67.7402 11.3672C67.4297 11.0566 67.002 10.8633 66.5273 10.8633H60.3516C59.3145 10.8633 58.4766 10.0254 58.4766 8.98828C58.4766 7.95117 59.3145 7.11328 60.3516 7.11328H66.5332C68.0391 7.11328 69.4043 7.72852 70.3945 8.71875C71.3848 9.70898 72 11.0742 72 12.5801V28.4355V66.5391C72 68.0449 71.3848 69.4102 70.3945 70.4004C69.4043 71.3906 68.0391 72.0059 66.5332 72.0059H5.4668C3.96094 72.0059 2.5957 71.3906 1.60547 70.4004C0.615234 69.4043 0 68.0391 0 66.5332V28.4297V12.5801C0 11.0742 0.615234 9.70898 1.60547 8.71875C2.5957 7.72852 3.96094 7.11328 5.4668 7.11328H12.0703C13.1074 7.11328 13.9453 7.95117 13.9453 8.98828C13.9453 10.0254 13.1074 10.8633 12.0703 10.8633H5.4668C4.99805 10.8633 4.57031 11.0566 4.25391 11.3672C3.94336 11.6777 3.75 12.1055 3.75 12.5801V26.5547ZM68.25 30.3105H3.75V66.5332C3.75 67.002 3.94336 67.4297 4.25391 67.7461C4.56445 68.0566 4.99219 68.25 5.4668 68.25H66.5332C67.002 68.25 67.4297 68.0566 67.7461 67.7461C68.0566 67.4355 68.25 67.0078 68.25 66.5332V30.3105ZM29.5488 10.8633C28.5117 10.8633 27.6738 10.0254 27.6738 8.98828C27.6738 7.95117 28.5117 7.11328 29.5488 7.11328H42.1406C43.1777 7.11328 44.0156 7.95117 44.0156 8.98828C44.0156 10.0254 43.1777 10.8633 42.1406 10.8633H29.5488Z" fill="white"/>
</g>
<defs>
<clipPath id="clip0">
<rect width="72" height="72" fill="white"/>
</clipPath>
</defs>
</svg>
