<svg width="68" height="75" viewBox="0 0 68 75" fill="none" xmlns="http://www.w3.org/2000/svg">
<path fill-rule="evenodd" clip-rule="evenodd" d="M33.8832 0C46.5624 8.0658 58.0166 11.8817 67.8471 10.9796C69.5639 45.8295 56.7401 66.4105 34.0146 75C12.0688 66.9604 -0.911939 47.265 0.0507932 10.451C11.5908 11.0571 22.9125 8.55347 33.8832 0ZM25.2138 33.8763H26.0883V31.8433C26.0883 29.5917 26.9726 27.5397 28.3976 26.0486C29.8334 24.5459 31.8167 23.6127 34.0012 23.6127C36.1858 23.6127 38.1696 24.5459 39.6049 26.0486C41.0298 27.5397 41.9141 29.5917 41.9141 31.8433V33.8763H42.7887C43.4984 33.8763 44.0798 34.4592 44.0798 35.1721V48.8647C44.0798 49.5776 43.4984 50.1605 42.7887 50.1605H25.2138C24.5035 50.1605 23.9226 49.5776 23.9226 48.8647V35.1721C23.922 34.4592 24.5035 33.8763 25.2138 33.8763ZM28.5332 33.8763H39.4687V31.8433C39.4687 30.2423 38.8477 28.7921 37.8473 27.7448C36.8578 26.709 35.4961 26.0663 34.0006 26.0663C32.5057 26.0663 31.1434 26.7096 30.1546 27.7448C29.1535 28.7921 28.5332 30.2429 28.5332 31.8433V33.8763ZM32.9412 42.8961L31.5479 46.5582H36.4534L35.1628 42.8461C35.982 42.4231 36.5422 41.5662 36.5422 40.578C36.5422 39.1693 35.4043 38.0273 34.0006 38.0273C32.597 38.0273 31.4597 39.1693 31.4597 40.578C31.4597 41.6064 32.0666 42.4927 32.9412 42.8961ZM33.8966 4.30603C45.1198 11.4453 55.2592 14.8236 63.9609 14.0247C65.4801 44.8724 54.1292 63.0908 34.014 70.6934C14.5879 63.5773 3.0965 46.1444 3.94916 13.5565C14.1646 14.0936 24.186 11.8774 33.8966 4.30603Z" fill="white"/>
</svg>
