<svg width="72" height="52" viewBox="0 0 72 52" fill="none" xmlns="http://www.w3.org/2000/svg">
<path d="M4.13086 0H67.8692C68.9587 0.01077 70.0001 0.449809 70.7678 1.22201C71.5355 1.99422 71.9677 3.0374 71.9707 4.12559V47.8744C71.9768 48.7092 71.7274 49.5259 71.2559 50.2152C71.1711 50.436 71.0391 50.6357 70.8691 50.8004C70.7549 50.9094 70.6245 51.0002 70.4824 51.0695C69.7431 51.6925 68.8072 52.0345 67.8399 52.0351H4.13086C3.04637 52.0244 2.00932 51.5894 1.24243 50.8235C0.475541 50.0576 0.0399823 49.0219 0.0292969 47.9388V4.12559C0.0323258 3.0374 0.464503 1.99422 1.23221 1.22201C1.99991 0.449809 3.04133 0.01077 4.13086 0V0ZM3.95508 46.1364L25.5059 23.7704L3.95508 5.58271V46.1364ZM28.752 26.5618L5.72461 48.8341H66.0762L44.0742 26.5618L37.6289 31.9514C37.3449 32.1869 36.9874 32.3159 36.6182 32.3159C36.249 32.3159 35.8914 32.1869 35.6074 31.9514L28.752 26.5618ZM47.2676 23.7295L68.0449 46.3178V5.38375L47.2676 23.7295ZM5.98242 3.16588L36.5566 27.9136L65.7832 3.16588H5.98242Z" fill="white"/>
</svg>
