<svg width="87" height="84" viewBox="0 0 87 84" fill="none" xmlns="http://www.w3.org/2000/svg">
<path d="M42.5161 48.7597L12.7585 33.0217L4.38986 43.1003C14.9463 48.7169 25.5026 54.3336 36.0661 59.9573L42.5161 48.7597ZM44.8171 16.7278L14.9533 31.639L44.0666 47.0419L73.2365 31.6104L56.5063 22.8006L44.8171 16.7278ZM11.2505 31.3253L0.276334 20.8619C-0.12723 20.3986 -0.0847495 19.6858 0.382536 19.2724C0.446256 19.2154 0.524137 19.1655 0.594938 19.1227L33.9492 0.127371C34.4802 -0.157738 35.1386 0.0418382 35.436 0.562161L44.8029 13.5488L51.0476 1.77387C51.3379 1.22504 52.0105 1.01121 52.5556 1.30344L86.3984 19.3152C86.4975 19.3722 86.5896 19.4363 86.6745 19.5219C87.1064 19.9638 87.0993 20.6765 86.6604 21.1113L76.635 31.026L86.3418 42.7225C86.7382 43.2001 86.6745 43.9129 86.2002 44.3049C86.1294 44.3619 86.0515 44.4118 85.9736 44.4546L77.258 49.0947V66.4863C77.258 66.9567 76.9748 67.3559 76.5642 67.5269L45.0507 83.6284C44.8454 83.8565 44.5481 83.9991 44.2224 83.9991C43.7834 83.9991 43.4082 83.7496 43.2241 83.379L11.654 67.4842C11.2646 67.2846 11.0381 66.8926 11.0381 66.4792V49.1802L2.15964 44.4546C2.08175 44.4118 2.00387 44.3619 1.93307 44.3049C1.45871 43.9057 1.39499 43.193 1.79147 42.7225L11.2505 31.3253ZM43.0754 15.01L34.0625 2.61494L2.8818 20.4556L13.07 30.0067L43.0754 15.01ZM46.5517 15.0243L56.9948 20.5269L74.7517 29.743L84.0053 20.591L52.499 3.81239L46.5517 15.0243ZM75.3818 33.0217L45.6242 48.7597L52.0742 59.9502L83.7505 43.0932L75.3818 33.0217Z" fill="white"/>
</svg>
