<svg width="73" height="76" viewBox="0 0 73 76" fill="none" xmlns="http://www.w3.org/2000/svg">
<path d="M56.8287 67.6195L54.9651 67.2855L54.0303 68.9616C54.0241 68.974 54.0179 68.9863 54.0055 68.9925C53.6155 69.4749 53.2564 69.4626 52.9468 69.209C52.6125 68.9368 52.3896 68.3555 52.2472 67.972L52.1915 67.8298L50.2165 64.1064C50.1546 63.9889 50.1979 63.8467 50.3156 63.791C50.328 63.7848 50.3403 63.7786 50.3465 63.7786C50.5508 63.7106 50.7799 63.5684 51.0276 63.3828C51.2876 63.1911 51.56 62.9499 51.8386 62.7025C51.8881 62.6592 51.95 62.6344 52.0181 62.6406C52.5506 62.653 53.0706 62.6097 53.535 62.4551C53.9931 62.3005 54.4141 62.0283 54.7732 61.5706C54.8537 61.4655 55.0023 61.4469 55.1013 61.5273C55.1261 61.5521 55.1509 61.5768 55.1633 61.6077L57.4478 66.0114L57.6459 66.4381C57.6521 66.4505 57.6583 66.4629 57.6583 66.4753C57.7512 66.8031 57.7697 67.0876 57.6583 67.304C57.5345 67.5452 57.293 67.6689 56.8844 67.638C56.872 67.6318 56.8473 67.6257 56.8287 67.6195ZM17.5891 61.2057C21.0933 56.6103 24.0836 58.7008 28.2688 61.6201C28.4793 61.7686 28.6898 61.9108 28.9003 62.0592C29.5009 62.4736 30.1262 62.3994 30.7577 62.0902C31.4387 61.75 32.1259 61.1439 32.807 60.5439L32.8194 60.5378C33.4323 59.9997 34.0328 59.4678 34.6767 59.0596C34.7881 58.9915 34.9305 59.0225 34.9986 59.1338L35.9521 60.6305C36.0202 60.7419 35.9892 60.8841 35.8778 60.9521C35.3825 61.2676 34.8439 61.7438 34.2928 62.2324L34.2805 62.2448C33.327 63.0859 32.3488 63.9456 31.2716 64.3909C30.1572 64.8486 28.9561 64.8486 27.6188 63.9209L26.9811 63.4756C25.3714 62.3499 23.9908 61.3913 22.7525 61.0882C21.5638 60.8037 20.4804 61.1439 19.3845 62.5788C19.304 62.6839 19.1555 62.7025 19.0564 62.6221L17.6386 61.5397C17.5272 61.4593 17.5086 61.3109 17.5891 61.2057ZM56.0796 2.41829C55.6709 2.88216 55.349 3.35221 55.1075 3.81608C54.8537 4.31087 54.6803 4.80566 54.5875 5.30664C54.4822 5.86328 54.4637 6.43229 54.5256 7.01367C54.5875 7.60124 54.7237 8.20736 54.928 8.82585L55.3428 10.0937C55.3799 10.2174 55.318 10.3473 55.1942 10.3906C55.1694 10.3968 55.1447 10.403 55.1199 10.403H11.5032V68.0648C11.5032 68.0833 11.5032 68.0957 11.497 68.1081C11.5032 69.1224 11.6084 69.9945 11.8313 70.7243C12.048 71.4479 12.3699 72.0355 12.8095 72.4622C13.2305 72.8766 13.7815 73.1673 14.4626 73.3343C15.1622 73.5013 16.0042 73.5322 16.9886 73.4209C29.5504 72.3262 47.9877 73.4085 61.1934 73.4085V8.15169C61.1934 8.13932 61.1934 8.12077 61.1996 8.1084V8.10221C61.2554 6.87142 61.1439 5.90039 60.9025 5.13965C60.6672 4.39746 60.2957 3.85937 59.8252 3.47591C59.3732 3.111 58.816 2.85742 58.1722 2.69661C57.5469 2.52962 56.8411 2.44922 56.0796 2.41829ZM9.08863 10.403H0.235264C0.10525 10.403 0 10.2979 0 10.168L0.037147 9.15983C0.0742939 8.12695 0.198117 7.14355 0.42719 6.22819C0.656263 5.30664 0.990586 4.45312 1.44873 3.67383C1.92545 2.87598 2.5198 2.16471 3.26893 1.55859C4.01187 0.952474 4.89721 0.457682 5.9559 0.0742187C5.96828 0.0680338 5.98066 0.0680339 5.99305 0.061849L6.32118 0C6.32737 0 6.34594 0 6.35832 0H57.8688C57.9926 0 58.0979 0.0989583 58.1041 0.222656C58.6613 0.321615 59.1875 0.463867 59.6828 0.661784C60.2895 0.89681 60.8467 1.21224 61.342 1.61426C62.1097 2.23893 62.7103 3.06771 63.1003 4.15006C63.4842 5.20768 63.6637 6.51888 63.5956 8.12695V8.15169V65.4362H70.2326C70.3254 65.4362 70.4059 65.4424 70.474 65.4486C70.4926 65.4424 70.5112 65.4424 70.5297 65.4424H70.5854C71.1055 65.4424 71.4832 65.4362 71.7989 65.5104C72.1456 65.5908 72.4056 65.7516 72.6533 66.0671C73.031 66.5557 73.0124 66.9577 72.9752 67.6875V67.6999C72.9629 67.9102 72.9505 68.1761 72.9505 68.6029C72.9505 70.3408 72.6471 71.7139 72.0899 72.79C71.5203 73.8724 70.6969 74.6455 69.663 75.1712C68.759 75.6289 67.7066 75.8763 66.5426 75.9691C65.3973 76.0557 64.1342 75.9938 62.7908 75.833H17.1619C15.837 75.9753 14.6731 75.901 13.6701 75.6289C12.6547 75.3506 11.8004 74.8682 11.1069 74.1816C10.4259 73.5075 9.91824 72.6478 9.58392 71.6211C9.25579 70.6191 9.09482 69.4502 9.09482 68.1204C9.09482 68.1081 9.08863 68.0895 9.08863 68.071V10.403ZM52.2225 4.85514C52.3153 4.37272 52.4515 3.90267 52.6435 3.43262C52.7797 3.08626 52.9468 2.74609 53.1449 2.40592H6.56263C5.85684 2.68424 5.2563 3.0306 4.761 3.44499C4.25333 3.86556 3.84471 4.35417 3.52277 4.89844C3.24417 5.36849 3.02748 5.88802 2.86032 6.44466C2.71792 6.93327 2.61267 7.4528 2.53838 7.99707H52.2348C52.1482 7.51465 52.0986 7.03841 52.0862 6.56217C52.0739 5.98698 52.1172 5.41797 52.2225 4.85514ZM63.6018 67.8421V73.5013C64.5924 73.6003 65.5149 73.6312 66.3383 73.5693C67.2051 73.5013 67.9604 73.3343 68.5795 73.0189C69.1924 72.7096 69.6815 72.221 70.0159 71.5159C70.3626 70.7923 70.5483 69.8337 70.5483 68.5967C70.5483 68.4235 70.5545 68.238 70.5607 68.0524L70.5731 67.8112C70.5359 67.8298 70.4926 67.8421 70.4492 67.8421H70.4369C70.3873 67.8421 70.344 67.8483 70.3007 67.8421H63.6018ZM18.4806 20.1009C18.1463 20.1009 17.8491 19.9648 17.6324 19.7484C17.4157 19.5319 17.2795 19.2288 17.2795 18.901C17.2795 18.5671 17.4157 18.2702 17.6324 18.0537C17.8491 17.8372 18.1525 17.7012 18.4806 17.7012H46.4523C46.7866 17.7012 47.0838 17.8372 47.3005 18.0537C47.5172 18.2702 47.6534 18.5732 47.6534 18.901C47.6534 19.235 47.5172 19.5319 47.3005 19.7484C47.0838 19.9648 46.7804 20.1009 46.4523 20.1009H18.4806ZM18.4806 30.0029C18.1463 30.0029 17.8429 29.8669 17.6262 29.6504C17.4095 29.4339 17.2733 29.1309 17.2733 28.8031C17.2733 28.4691 17.4095 28.1722 17.6262 27.9557C17.8429 27.7393 18.1463 27.6032 18.4806 27.6032H52.792C53.1264 27.6032 53.4297 27.7393 53.6464 27.9557C53.8631 28.1722 53.9993 28.4753 53.9993 28.8031C53.9993 29.137 53.8631 29.4339 53.6464 29.6504C53.4297 29.8669 53.1264 30.0029 52.792 30.0029H18.4806ZM18.4806 39.9173C18.1463 39.9173 17.8491 39.7812 17.6324 39.5648C17.4157 39.3483 17.2795 39.0452 17.2795 38.7174C17.2795 38.3835 17.4157 38.0866 17.6324 37.8639C17.8491 37.6475 18.1525 37.5114 18.4868 37.5114H45.9075C46.2418 37.5114 46.539 37.6475 46.7557 37.8639C46.9723 38.0804 47.1086 38.3835 47.1086 38.7113C47.1086 39.0452 46.9723 39.3421 46.7557 39.5586C46.539 39.7751 46.2356 39.9111 45.9075 39.9111H18.4806V39.9173ZM18.4806 49.8379C18.1525 49.8379 17.8491 49.7018 17.6324 49.4854C17.4157 49.2689 17.2795 48.9658 17.2795 48.6318C17.2795 48.2978 17.4157 47.9948 17.6324 47.7783C17.8491 47.5618 18.1525 47.4258 18.4806 47.4258H32.6708C32.9989 47.4258 33.3023 47.5618 33.519 47.7783C33.7356 47.9948 33.8718 48.2978 33.8718 48.6318C33.8718 48.9658 33.7356 49.2689 33.519 49.4854C33.3023 49.7018 32.9989 49.8379 32.6708 49.8379H18.4806ZM49.2755 47.0732C49.4983 47.0609 49.6965 47.098 49.8822 47.1598C50.0617 47.2217 50.2289 47.3145 50.4023 47.4196C50.5756 47.5309 50.7551 47.6794 50.9471 47.8464L50.9595 47.8587C51.2009 48.0628 51.4671 48.2917 51.7643 48.4587C52.0058 48.5947 52.3649 48.6071 52.7425 48.6257C53.4545 48.6504 54.2284 48.6813 54.7423 49.4421C55.1818 50.1038 55.219 50.6048 55.2499 51.1058L55.2561 51.1615C55.2685 51.4027 55.2995 51.6315 55.3861 51.8789C55.4728 52.1325 55.6214 52.4046 55.869 52.7386C56.3334 53.3509 56.612 53.8704 56.7172 54.3467C56.8287 54.8477 56.7544 55.2992 56.5005 55.7568L56.4944 55.7692C56.3024 56.097 56.0238 56.3382 55.7824 56.5423C55.6028 56.6969 55.4419 56.833 55.3923 56.9443C55.2623 57.2474 55.2561 57.5257 55.2561 57.8164C55.2499 58.2122 55.2437 58.6204 54.9837 59.14L54.9775 59.1523C54.8104 59.474 54.5999 59.7461 54.346 59.9626C54.086 60.1852 53.7826 60.3522 53.4359 60.4635C53.1264 60.5625 52.8416 60.5439 52.563 60.5254C52.3339 60.5068 52.1234 60.4945 51.9624 60.5625L51.9439 60.5687C51.6095 60.7109 51.3062 60.9583 51.0152 61.1872C50.6932 61.4469 50.3899 61.6881 50.0432 61.7995C49.7893 61.8799 49.5355 61.917 49.2817 61.917C49.0278 61.917 48.774 61.8799 48.5201 61.7995L48.5078 61.7933C48.1672 61.6881 47.8639 61.4408 47.5419 61.181C47.251 60.946 46.9414 60.6986 46.6009 60.5563C46.4399 60.4883 46.2294 60.5068 46.0003 60.5192C45.7279 60.5378 45.4369 60.5563 45.1212 60.4574L45.1026 60.4512C44.7621 60.3398 44.4649 60.1729 44.2049 59.9564C43.9511 59.7337 43.7344 59.4616 43.5734 59.1338C43.3134 58.6143 43.3072 58.2061 43.301 57.8102C43.2948 57.5195 43.2948 57.2412 43.1648 56.9381L43.1586 56.932C43.1029 56.8145 42.9419 56.6784 42.7624 56.5238C42.5147 56.3135 42.2361 56.0784 42.0504 55.7506L42.038 55.7321C41.7842 55.2806 41.7161 54.8353 41.8275 54.3343C41.9327 53.8581 42.2175 53.3385 42.6819 52.7262C42.9357 52.3984 43.0781 52.1201 43.1648 51.8665C43.2515 51.6191 43.2824 51.3841 43.2948 51.1429L43.301 51.0934C43.3319 50.5924 43.3691 50.0791 43.8087 49.4297L43.821 49.4173C44.3287 48.6689 45.0964 48.6442 45.8022 48.6195C46.1799 48.6071 46.5452 48.5885 46.7866 48.4525L46.7928 48.4463C47.0838 48.2793 47.35 48.0566 47.5915 47.8464C47.7834 47.6794 47.9629 47.5247 48.1487 47.4134C48.3158 47.3021 48.4892 47.2155 48.6687 47.1536C48.8607 47.098 49.0588 47.0671 49.2755 47.0732ZM52.1605 51.613C51.4238 50.877 50.4084 50.4193 49.2817 50.4193C48.1549 50.4193 47.1395 50.877 46.4028 51.613C45.666 52.349 45.2079 53.3633 45.2079 54.4889C45.2079 55.6146 45.666 56.6289 46.4028 57.3649C47.1395 58.1009 48.1549 58.5586 49.2817 58.5586C50.4084 58.5586 51.4238 58.1009 52.1605 57.3649C52.8973 56.6289 53.3554 55.6146 53.3554 54.4889C53.3492 53.3695 52.8973 52.349 52.1605 51.613ZM43.5982 67.2855L41.7346 67.6195C41.7161 67.6257 41.6975 67.6256 41.6727 67.6256C41.2641 67.6566 41.0226 67.5329 40.8988 67.2917C40.7874 67.0814 40.806 66.7969 40.8988 66.4629L40.9112 66.4258L41.1093 65.999L43.3939 61.5954C43.4062 61.5645 43.431 61.5397 43.4558 61.515C43.561 61.4346 43.7034 61.4531 43.7839 61.5583C44.1368 62.0098 44.5578 62.2819 45.0221 62.4427C45.4927 62.6035 46.0065 62.6406 46.539 62.6283C46.6009 62.6221 46.6628 62.6406 46.7185 62.6901C46.9971 62.9375 47.2695 63.1787 47.5296 63.3704C47.7772 63.556 48.0063 63.6982 48.2106 63.7663L48.2415 63.7786C48.3592 63.8405 48.4025 63.9827 48.3406 64.0941L46.3656 67.8174L46.3099 67.9596C46.1675 68.3431 45.9446 68.9245 45.6103 69.1966C45.3007 69.444 44.9478 69.4626 44.5516 68.9801C44.5454 68.9678 44.533 68.9616 44.5268 68.9492L43.5982 67.2855Z" fill="white"/>
</svg>
