<svg width="251" height="77" viewBox="0 0 251 77" fill="none" xmlns="http://www.w3.org/2000/svg">
<path d="M49.8126 52H44.0704V34.5859C44.0704 33.3984 43.9298 32.3594 43.6485 31.4688C43.3673 30.5625 42.922 29.8047 42.3126 29.1953C41.7032 28.5859 40.922 28.125 39.9688 27.8125C39.0157 27.5 37.8595 27.3438 36.5001 27.3438C34.3907 27.3438 32.4298 27.4375 30.6173 27.625V41.875C30.6173 43.5 30.4845 44.9688 30.2188 46.2812C29.9688 47.5781 29.5313 48.6875 28.9063 49.6094C28.297 50.5156 27.4766 51.2188 26.4454 51.7188C25.4141 52.2031 24.1251 52.4453 22.5782 52.4453C21.8751 52.4453 21.2501 52.4141 20.7032 52.3516C20.1563 52.3047 19.6173 52.2188 19.086 52.0938L19.7423 47.7812C20.0391 47.8438 20.3204 47.8906 20.586 47.9219C20.8516 47.9531 21.1407 47.9688 21.4532 47.9688C22.172 47.9688 22.7501 47.8203 23.1876 47.5234C23.6407 47.2109 23.9923 46.7812 24.2423 46.2344C24.4923 45.6875 24.6563 45.0469 24.7345 44.3125C24.8282 43.5625 24.8751 42.75 24.8751 41.875V28.2812L21.3595 28.8906L21.9454 23.8984C23.1016 23.6953 24.297 23.5234 25.5313 23.3828C26.7657 23.2422 28.0157 23.1328 29.2813 23.0547C30.547 22.9609 31.8048 22.8984 33.0548 22.8672C34.3204 22.8203 35.5548 22.7969 36.7579 22.7969C38.6954 22.7969 40.461 23.0156 42.0548 23.4531C43.6641 23.8906 45.0391 24.5781 46.1798 25.5156C47.336 26.4531 48.2266 27.6641 48.8516 29.1484C49.4923 30.6172 49.8126 32.3906 49.8126 34.4688V52ZM62.8438 52H57.2188V23.1953H62.8438V52ZM90.5938 40.3281C90.422 42.25 90.0391 43.9453 89.4454 45.4141C88.8673 46.8672 88.0548 48.0859 87.0079 49.0703C85.961 50.0391 84.6641 50.7734 83.1173 51.2734C81.5704 51.7578 79.7501 52 77.6563 52H73.5079L75.0782 47.4531H76.836C78.1485 47.4531 79.2813 47.3047 80.2345 47.0078C81.2032 46.7109 82.0157 46.2578 82.672 45.6484C83.3282 45.0234 83.836 44.2422 84.1954 43.3047C84.5704 42.3516 84.8204 41.2344 84.9454 39.9531L85.6485 32.7344C85.6798 32.5469 85.6954 32.375 85.6954 32.2188C85.6954 32.0625 85.6954 31.9062 85.6954 31.75C85.6954 30.9844 85.586 30.3438 85.3673 29.8281C85.1641 29.3125 84.8595 28.9062 84.4532 28.6094C84.047 28.2969 83.5391 28.0781 82.9298 27.9531C82.336 27.8125 81.6485 27.7422 80.8673 27.7422H68.7501V12.25H74.4923V23.1953H81.8985C83.3516 23.1953 84.6641 23.3438 85.836 23.6406C87.0079 23.9375 88.0079 24.3984 88.836 25.0234C89.6798 25.6328 90.3204 26.4062 90.7579 27.3438C91.211 28.2812 91.4376 29.3906 91.4376 30.6719C91.4376 30.8438 91.4298 31.0156 91.4141 31.1875C91.4141 31.3594 91.4063 31.5391 91.3907 31.7266L90.5938 40.3281ZM118.977 37.6562C118.977 38.9062 118.875 40.0391 118.672 41.0547C118.469 42.0703 118.188 42.9844 117.828 43.7969C117.484 44.5938 117.078 45.2969 116.609 45.9062C116.156 46.5156 115.664 47.0312 115.133 47.4531H120.805L120.195 52H96.0548L96.6876 47.4531H105.359C106.859 47.4531 108.109 47.2188 109.109 46.75C110.125 46.2656 110.938 45.5938 111.547 44.7344C112.156 43.875 112.586 42.8516 112.836 41.6641C113.102 40.4609 113.234 39.1406 113.234 37.7031V34.8438C113.234 33.5 113.024 32.3516 112.602 31.3984C112.195 30.4453 111.602 29.6719 110.82 29.0781C110.055 28.4688 109.117 28.0312 108.008 27.7656C106.914 27.4844 105.68 27.3438 104.305 27.3438C103.586 27.3438 102.883 27.3672 102.195 27.4141C101.508 27.4453 100.82 27.5078 100.133 27.6016C99.461 27.6797 98.7735 27.7812 98.0704 27.9062C97.3673 28.0156 96.6329 28.1484 95.8673 28.3047L96.5001 23.6641C97.1876 23.5234 97.8751 23.3984 98.5626 23.2891C99.2501 23.1797 99.961 23.0938 100.695 23.0312C101.445 22.9531 102.234 22.8984 103.063 22.8672C103.891 22.8203 104.781 22.7969 105.734 22.7969C107.75 22.7969 109.57 23.0234 111.195 23.4766C112.836 23.9297 114.227 24.625 115.367 25.5625C116.524 26.5 117.414 27.6953 118.039 29.1484C118.664 30.5859 118.977 32.3047 118.977 34.3047V37.6562ZM132.219 52H126.594V23.1953H132.219V52ZM164.586 52H158.844V34.6094C158.844 32.2656 158.258 30.4688 157.086 29.2188C155.93 27.9688 154.039 27.3438 151.414 27.3438C150.383 27.3438 149.367 27.3828 148.367 27.4609C147.383 27.5391 146.399 27.6484 145.414 27.7891C144.43 27.9297 143.438 28.0938 142.438 28.2812C141.438 28.4688 140.414 28.6719 139.367 28.8906L139.977 24.0156C141.695 23.6406 143.586 23.3438 145.649 23.125C147.727 22.9062 149.836 22.7969 151.977 22.7969C153.82 22.7969 155.508 23.0234 157.039 23.4766C158.586 23.9141 159.914 24.6094 161.024 25.5625C162.149 26.5 163.024 27.7109 163.649 29.1953C164.274 30.6797 164.586 32.4609 164.586 34.5391V52ZM145.578 52H139.813V35.2188L145.578 32.4297V52ZM190.813 39.5078H185.188V23.1953H190.813V39.5078ZM207.922 52V33.7422C207.922 32.4922 208.047 31.3516 208.297 30.3203C208.563 29.2891 209.102 28.375 209.914 27.5781C209.07 27.6406 208.25 27.6875 207.453 27.7188C206.656 27.7344 205.844 27.7422 205.016 27.7422H195.125L195.852 23.1953H218.399L217.813 27.7422H216.992C216.274 27.7422 215.688 27.8594 215.234 28.0938C214.781 28.3281 214.43 28.6641 214.18 29.1016C213.93 29.5391 213.758 30.0781 213.664 30.7188C213.586 31.3438 213.547 32.0547 213.547 32.8516V52H207.922ZM239.047 37.8438C239.484 37.4688 239.891 37.0703 240.266 36.6484C240.641 36.2109 240.961 35.7188 241.227 35.1719C241.492 34.6094 241.703 33.9844 241.859 33.2969C242.016 32.5938 242.094 31.7969 242.094 30.9062V23.1953H247.719V30.9062C247.719 32.2031 247.531 33.3906 247.156 34.4688C246.797 35.5312 246.32 36.5 245.727 37.375C245.149 38.2344 244.484 39.0078 243.734 39.6953C243 40.3828 242.258 41.0078 241.508 41.5703C241.852 42.0703 242.219 42.6016 242.609 43.1641C243 43.7266 243.399 44.2969 243.805 44.875C244.211 45.4531 244.609 46.0312 245 46.6094C245.406 47.1875 245.797 47.7422 246.172 48.2734C247.031 49.5078 247.899 50.75 248.774 52H242.211C240.899 50.0156 239.578 48.0391 238.25 46.0703C237.688 45.2266 237.094 44.3516 236.469 43.4453C235.844 42.5234 235.211 41.6016 234.57 40.6797C233.93 39.7578 233.289 38.8594 232.649 37.9844C232.024 37.0938 231.422 36.2578 230.844 35.4766C230.313 36.0391 229.883 36.5938 229.555 37.1406C229.242 37.6719 229.008 38.2344 228.852 38.8281C228.695 39.4062 228.594 40.0312 228.547 40.7031C228.5 41.375 228.477 42.1172 228.477 42.9297V52H222.852V42.9297C222.852 41.5234 222.961 40.3047 223.18 39.2734C223.414 38.2422 223.75 37.3125 224.188 36.4844C224.641 35.6406 225.195 34.8516 225.852 34.1172C226.524 33.3828 227.297 32.6172 228.172 31.8203L222.688 25.0469C223.391 24.7188 224.063 24.4141 224.703 24.1328C225.25 23.8828 225.82 23.6328 226.414 23.3828C227.008 23.1172 227.484 22.9062 227.844 22.75C229.141 24.3906 230.359 25.9688 231.5 27.4844C232.641 29 233.688 30.4062 234.641 31.7031C235.609 33 236.461 34.1719 237.195 35.2188C237.945 36.2656 238.563 37.1406 239.047 37.8438Z" fill="white"/>
<path d="M64.2344 58.1973C64.1797 58.6621 64.1068 59.2773 64.0156 60.043C63.9427 60.6992 63.847 61.556 63.7285 62.6133C63.61 63.6706 63.4596 64.9785 63.2773 66.5371C63.1042 68.0684 62.8353 69.3717 62.4707 70.4473C62.1152 71.5137 61.6504 72.3841 61.0762 73.0586C60.502 73.7331 59.8138 74.2253 59.0117 74.5352C58.2188 74.8451 57.2982 75 56.25 75H47.8145L45.2852 58.1973H47.7324L49.1953 68.5059C49.7331 68.3418 50.2161 68.1777 50.6445 68.0137C51.082 67.8496 51.4694 67.6582 51.8066 67.4395C52.1439 67.2116 52.4401 66.9427 52.6953 66.6328C52.9505 66.3229 53.1738 65.9492 53.3652 65.5117C53.5566 65.0651 53.7161 64.541 53.8438 63.9395C53.9805 63.3288 54.0898 62.6133 54.1719 61.793C54.2174 61.3737 54.263 60.9544 54.3086 60.5352C54.3542 60.1068 54.3997 59.7194 54.4453 59.373C54.4909 58.9629 54.5365 58.571 54.582 58.1973H56.9883C56.9518 58.5254 56.9108 58.89 56.8652 59.291C56.8197 59.6374 56.7741 60.0339 56.7285 60.4805C56.6829 60.9271 56.6328 61.4102 56.5781 61.9297C56.4505 63.1875 56.2454 64.2767 55.9629 65.1973C55.6803 66.1087 55.2702 66.9017 54.7324 67.5762C54.1947 68.2415 53.502 68.8066 52.6543 69.2715C51.8158 69.7363 50.7721 70.1465 49.5234 70.502L49.8516 72.7852H56.2773C56.8242 72.7852 57.3392 72.6986 57.8223 72.5254C58.3145 72.3431 58.7611 72.0241 59.1621 71.5684C59.5632 71.1126 59.9095 70.4928 60.2012 69.709C60.4928 68.916 60.7116 67.9134 60.8574 66.7012C61.0579 65.1882 61.222 63.8984 61.3496 62.832C61.4772 61.7656 61.5775 60.8861 61.6504 60.1934C61.7415 59.3822 61.8099 58.7168 61.8555 58.1973H64.2344ZM70.6738 67.4668H68.3633V58.1973H70.6738V67.4668ZM83.8262 75H81.625L81.0781 68.4375C80.3763 68.6198 79.7428 68.8887 79.1777 69.2441C78.6217 69.5996 78.1615 69.9915 77.7969 70.4199C77.569 70.6842 77.3594 70.9987 77.168 71.3633C76.9857 71.7188 76.8216 72.1016 76.6758 72.5117C76.5299 72.9128 76.4023 73.3275 76.293 73.7559C76.1836 74.1842 76.0833 74.599 75.9922 75H73.6816C73.8548 74.2982 74.0553 73.6237 74.2832 72.9766C74.3835 72.7031 74.4883 72.4206 74.5977 72.1289C74.707 71.8281 74.8255 71.5365 74.9531 71.2539C75.0807 70.9622 75.2129 70.6888 75.3496 70.4336C75.4954 70.1784 75.6413 69.9551 75.7871 69.7637C76.1152 69.3353 76.4707 68.9661 76.8535 68.6562C77.2363 68.3372 77.6465 68.0592 78.084 67.8223C78.5306 67.5762 78.9954 67.362 79.4785 67.1797C79.9707 66.9883 80.4811 66.806 81.0098 66.6328L80.6406 62.9414C80.5859 62.4492 80.4629 62.0299 80.2715 61.6836C80.0801 61.3372 79.8294 61.0547 79.5195 60.8359C79.2096 60.6081 78.8451 60.444 78.4258 60.3438C78.0156 60.2344 77.5553 60.1797 77.0449 60.1797H74.3516L74.6523 58.1973H76.9766C77.8698 58.1973 78.6628 58.2793 79.3555 58.4434C80.0573 58.6074 80.6543 58.8763 81.1465 59.25C81.6478 59.6146 82.0397 60.0977 82.3223 60.6992C82.6139 61.3008 82.7917 62.0391 82.8555 62.9141L83.8262 75ZM98.5918 75H96.2539V64.8008C96.2539 63.1602 95.8164 61.9479 94.9414 61.1641C94.0664 60.3711 92.8268 59.9746 91.2227 59.9746C90.2656 59.9746 89.3314 60.0521 88.4199 60.207C87.5176 60.3529 86.6882 60.5078 85.9316 60.6719L86.2324 58.4844C86.6152 58.4023 87.0208 58.3294 87.4492 58.2656C87.8867 58.1927 88.3242 58.138 88.7617 58.1016C89.1992 58.056 89.623 58.0241 90.0332 58.0059C90.4525 57.9785 90.8398 57.9648 91.1953 57.9648C92.2891 57.9648 93.2871 58.1016 94.1895 58.375C95.1009 58.6393 95.8802 59.0495 96.5273 59.6055C97.1836 60.1615 97.6895 60.8633 98.0449 61.7109C98.4095 62.5586 98.5918 63.5612 98.5918 64.7188V75ZM116.27 75V63.8164C116.27 62.987 116.42 62.2806 116.721 61.6973C117.021 61.1048 117.432 60.5898 117.951 60.1523C117.842 60.1523 117.701 60.1569 117.527 60.166C117.354 60.1751 117.176 60.1842 116.994 60.1934C116.821 60.2025 116.652 60.2116 116.488 60.2207C116.333 60.2298 116.21 60.2344 116.119 60.2344H109.078L109.406 58.1973H121.479L121.137 60.2344H120.385C120.02 60.2344 119.719 60.3301 119.482 60.5215C119.255 60.7038 119.072 60.9362 118.936 61.2188C118.799 61.5013 118.703 61.8021 118.648 62.1211C118.603 62.4401 118.58 62.7363 118.58 63.0098V75H116.27ZM127.029 75H124.719V58.1973H127.029V75ZM134.549 67.4668H132.238V58.1973H134.549V67.4668ZM151.666 61.6016C151.666 62.4766 151.575 63.2513 151.393 63.9258C151.21 64.6003 150.955 65.2109 150.627 65.7578C150.299 66.2956 149.907 66.7878 149.451 67.2344C148.995 67.681 148.494 68.1185 147.947 68.5469L150.955 72.7852L150.354 75H138.186L138.801 72.7852H148.248L138.527 59.0312L140.633 58.1016L146.881 67.0156C147.2 66.8242 147.505 66.5781 147.797 66.2773C148.098 65.9766 148.362 65.6165 148.59 65.1973C148.818 64.778 149 64.2995 149.137 63.7617C149.273 63.224 149.342 62.6315 149.342 61.9844V58.1973H151.666V61.6016ZM179.229 75H176.891V64.8008C176.891 63.9167 176.758 63.1693 176.494 62.5586C176.239 61.9479 175.852 61.4512 175.332 61.0684C174.822 60.6855 174.179 60.4076 173.404 60.2344C172.63 60.0612 171.727 59.9746 170.697 59.9746C170.232 59.9746 169.745 59.9928 169.234 60.0293C168.733 60.0658 168.223 60.1113 167.703 60.166V69.0938C167.703 69.6497 167.694 70.1875 167.676 70.707C167.658 71.2266 167.607 71.7142 167.525 72.1699C167.443 72.6257 167.32 73.0449 167.156 73.4277C166.992 73.8105 166.76 74.1387 166.459 74.4121C166.158 74.6764 165.78 74.8815 165.324 75.0273C164.868 75.1823 164.312 75.2598 163.656 75.2598C163.392 75.2598 163.118 75.2507 162.836 75.2324C162.553 75.2142 162.262 75.1823 161.961 75.1367L162.221 73.1543C162.403 73.1908 162.567 73.2135 162.713 73.2227C162.859 73.2227 163 73.2227 163.137 73.2227C163.556 73.2227 163.907 73.1543 164.189 73.0176C164.472 72.8717 164.7 72.6439 164.873 72.334C165.055 72.0241 165.183 71.6322 165.256 71.1582C165.338 70.6751 165.379 70.1009 165.379 69.4355V60.4668C164.978 60.5306 164.604 60.599 164.258 60.6719C163.911 60.7357 163.602 60.7949 163.328 60.8496L163.588 58.5938C164.089 58.5117 164.632 58.4342 165.215 58.3613C165.807 58.2884 166.427 58.2246 167.074 58.1699C167.73 58.1061 168.41 58.056 169.111 58.0195C169.813 57.9831 170.524 57.9648 171.244 57.9648C172.374 57.9648 173.423 58.0879 174.389 58.334C175.364 58.5801 176.207 58.9766 176.918 59.5234C177.638 60.0612 178.203 60.7539 178.613 61.6016C179.023 62.4492 179.229 63.4746 179.229 64.6777V75ZM186.502 75H184.191V58.1973H186.502V75ZM202.826 62.4629C202.826 62.7181 202.812 62.987 202.785 63.2695C202.767 63.5521 202.749 63.7799 202.73 63.9531L202.348 67.877C202.293 68.4147 202.206 68.9525 202.088 69.4902C201.969 70.028 201.805 70.543 201.596 71.0352C201.395 71.5273 201.145 71.9922 200.844 72.4297C200.552 72.8672 200.201 73.2546 199.791 73.5918C199.363 73.9473 198.861 74.2207 198.287 74.4121C197.713 74.5944 197.12 74.7311 196.51 74.8223C195.908 74.9043 195.32 74.9544 194.746 74.9727C194.172 74.9818 193.671 74.9909 193.242 75L193.926 73.0586C194.163 73.0586 194.445 73.054 194.773 73.0449C195.102 73.0267 195.443 72.9948 195.799 72.9492C196.163 72.8945 196.523 72.8216 196.879 72.7305C197.243 72.6302 197.567 72.498 197.85 72.334C198.187 72.1426 198.483 71.8965 198.738 71.5957C198.993 71.2949 199.208 70.9577 199.381 70.584C199.563 70.2012 199.709 69.7956 199.818 69.3672C199.928 68.9297 200.005 68.4876 200.051 68.041L200.42 64.1855C200.429 64.0944 200.443 63.9212 200.461 63.666C200.488 63.4108 200.502 63.1693 200.502 62.9414C200.502 62.5039 200.424 62.1165 200.27 61.7793C200.115 61.4421 199.891 61.1595 199.6 60.9316C199.317 60.7038 198.971 60.5306 198.561 60.4121C198.15 60.2936 197.695 60.2344 197.193 60.2344H190.33V51.8125H192.641V58.1973H197.645C198.428 58.1973 199.139 58.3066 199.777 58.5254C200.415 58.735 200.958 59.0312 201.404 59.4141C201.86 59.7969 202.211 60.248 202.457 60.7676C202.703 61.2871 202.826 61.8522 202.826 62.4629ZM218.289 66.6055C218.289 67.3711 218.234 68.0365 218.125 68.6016C218.025 69.1576 217.883 69.6497 217.701 70.0781C217.519 70.4974 217.3 70.8711 217.045 71.1992C216.79 71.5182 216.516 71.819 216.225 72.1016L215.514 72.7852H219.355L219.055 75H205.684L206.012 72.7852H211.781C212.401 72.7852 212.934 72.6712 213.381 72.4434C213.827 72.2064 214.206 71.901 214.516 71.5273C214.826 71.1536 215.072 70.7389 215.254 70.2832C215.445 69.8184 215.591 69.3581 215.691 68.9023C215.801 68.4466 215.869 68.0182 215.896 67.6172C215.933 67.207 215.951 66.8789 215.951 66.6328V64.8008C215.951 63.1602 215.514 61.9479 214.639 61.1641C213.764 60.3711 212.524 59.9746 210.92 59.9746C209.963 59.9746 209.029 60.0521 208.117 60.207C207.215 60.3529 206.385 60.5078 205.629 60.6719L205.93 58.4844C206.312 58.4023 206.718 58.3294 207.146 58.2656C207.584 58.1927 208.021 58.138 208.459 58.1016C208.896 58.056 209.32 58.0241 209.73 58.0059C210.15 57.9785 210.537 57.9648 210.893 57.9648C211.986 57.9648 212.984 58.1016 213.887 58.375C214.798 58.6393 215.577 59.0495 216.225 59.6055C216.881 60.1615 217.387 60.8633 217.742 61.7109C218.107 62.5586 218.289 63.5612 218.289 64.7188V66.6055ZM225.412 75H223.102V58.1973H225.412V75ZM244.648 75H242.311V64.8008C242.311 63.8802 242.192 63.11 241.955 62.4902C241.718 61.8704 241.376 61.3737 240.93 61C240.492 60.6263 239.95 60.362 239.303 60.207C238.665 60.0521 237.94 59.9746 237.129 59.9746C236.6 59.9746 236.031 60.002 235.42 60.0566C234.809 60.1113 234.203 60.1842 233.602 60.2754C233.009 60.3574 232.444 60.4531 231.906 60.5625C231.378 60.6628 230.922 60.7585 230.539 60.8496L230.799 58.5938C231.236 58.5117 231.715 58.4342 232.234 58.3613C232.763 58.2884 233.314 58.2246 233.889 58.1699C234.472 58.1061 235.074 58.056 235.693 58.0195C236.313 57.9831 236.942 57.9648 237.58 57.9648C238.583 57.9648 239.512 58.0879 240.369 58.334C241.226 58.5801 241.973 58.9766 242.611 59.5234C243.249 60.0612 243.746 60.7539 244.102 61.6016C244.466 62.4492 244.648 63.4746 244.648 64.6777V75ZM233.027 75H230.717V65.252L233.027 64.1445V75Z" fill="white"/>
</svg>
