<svg width="74" height="73" viewBox="0 0 74 73" fill="none" xmlns="http://www.w3.org/2000/svg">
<g filter="url(#filter0_d)">
<path d="M22.1761 26.7119C24.3944 30.6724 26.951 34.4734 30.2704 37.9395C33.6004 41.4269 37.7416 44.6006 43.1019 47.3118C43.4994 47.5032 43.8753 47.5032 44.2137 47.3703C44.724 47.1789 45.245 46.7589 45.7552 46.2539C46.1527 45.8605 46.6468 45.2332 47.1624 44.5474C49.2249 41.8628 51.7762 38.5296 55.3802 40.1989C55.4608 40.2361 55.5199 40.2786 55.6004 40.3105L67.6209 47.1523C67.6585 47.1736 67.7015 47.2108 67.7337 47.2321C69.3182 48.3112 69.9735 49.9752 69.9896 51.8624C69.9896 53.7815 69.2752 55.9398 68.2279 57.7633C66.8421 60.1715 64.8011 61.7663 62.4486 62.8189C60.2088 63.8396 57.7166 64.3871 55.3211 64.738C51.5614 65.2856 48.0379 64.9347 44.4339 63.8396C40.9105 62.7604 37.3602 60.9795 33.4823 58.6085L33.1976 58.4278C31.4198 57.3274 29.4969 56.1525 27.6117 54.765C20.7152 49.6084 13.6844 42.1605 9.10288 33.9631C5.26254 27.084 3.16782 19.6574 4.31186 12.5817C4.94565 8.70094 6.6268 5.17105 9.55942 2.8426C12.1161 0.801213 15.5589 -0.315169 20.0169 0.0782223C20.5272 0.115435 20.9837 0.407821 21.2254 0.843741L28.933 13.7406C30.0609 15.1866 30.2005 16.6219 29.5829 18.0573C29.0726 19.2321 28.0414 20.3166 26.6341 21.3267C26.2206 21.6776 25.7264 22.0337 25.2054 22.4059C23.4813 23.6445 21.5208 25.0745 22.1922 26.7544L22.1761 26.7119Z"/>
</g>
<defs>
<filter id="filter0_d" x="0" y="0" width="73.9896" height="72.9928" filterUnits="userSpaceOnUse" color-interpolation-filters="sRGB">
<feFlood flood-opacity="0" result="BackgroundImageFix"/>
<feColorMatrix in="SourceAlpha" type="matrix" values="0 0 0 0 0 0 0 0 0 0 0 0 0 0 0 0 0 0 127 0" result="hardAlpha"/>
<feOffset dy="4"/>
<feGaussianBlur stdDeviation="2"/>
<feComposite in2="hardAlpha" operator="out"/>
<feColorMatrix type="matrix" values="0 0 0 0 0 0 0 0 0 0 0 0 0 0 0 0 0 0 0.25 0"/>
<feBlend mode="normal" in2="BackgroundImageFix" result="effect1_dropShadow"/>
<feBlend mode="normal" in="SourceGraphic" in2="effect1_dropShadow" result="shape"/>
</filter>
</defs>
</svg>
