<svg width="102" height="64" viewBox="0 0 102 64" fill="none" xmlns="http://www.w3.org/2000/svg">
<path fill-rule="evenodd" clip-rule="evenodd" d="M91.8896 53.9865C91.8896 56.7462 90.9766 59.1141 89.1172 61.0651C87.2827 63.0162 85.0415 64 82.4268 64C79.7954 64 77.5625 63.0162 75.7197 61.0651C73.8853 59.1141 72.9556 56.7462 72.9556 53.9865C72.9556 51.2183 73.8853 48.8588 75.7197 46.9078C77.5625 44.9401 79.7954 43.9729 82.4268 43.9729C85.0415 43.9729 87.2744 44.9401 89.1172 46.9078C90.9766 48.8504 91.8896 51.2183 91.8896 53.9865ZM83.1074 17.4257H102V32.2585H83.1074V17.4257ZM79.646 17.4257H60.7534V32.2585H79.646V17.4257ZM57.292 17.4257H38.3994V32.2585H57.292V17.4257ZM83.1074 14.8327H102V0H83.1074V14.8327ZM79.646 14.8327H60.7534V0H79.646V14.8327ZM57.292 14.8327H38.3994V0H57.292V14.8327ZM82.8086 50.7931C84.5601 50.7931 85.9878 52.2189 85.9878 53.9865C85.9878 55.7457 84.5684 57.1798 82.8086 57.1798C81.0571 57.1798 79.6294 55.754 79.6294 53.9865C79.6377 52.2189 81.0571 50.7931 82.8086 50.7931ZM22.5615 50.7931C24.313 50.7931 25.7407 52.2189 25.7407 53.9865C25.7407 55.7457 24.3213 57.1798 22.5615 57.1798C20.8101 57.1798 19.3823 55.754 19.3823 53.9865C19.3823 52.2189 20.8101 50.7931 22.5615 50.7931ZM31.9746 53.9865C31.9746 56.7462 31.0615 59.1141 29.2104 61.0651C27.3677 63.0162 25.1348 64 22.52 64C19.8887 64 17.6558 63.0162 15.813 61.0651C13.9702 59.1141 13.0488 56.7462 13.0488 53.9865C13.0488 51.2183 13.9785 48.8588 15.813 46.9078C17.6558 44.9401 19.8887 43.9729 22.52 43.9729C25.1348 43.9729 27.3677 44.9401 29.2104 46.9078C31.0615 48.8504 31.9746 51.2183 31.9746 53.9865ZM101.568 59.1808H94.5376C95.1519 57.5883 95.459 55.8541 95.459 53.9865C95.459 50.2095 94.2139 46.9828 91.6821 44.3231C89.1753 41.6384 86.1206 40.321 82.5513 40.321C78.957 40.321 75.9106 41.6384 73.3955 44.3231C70.8887 46.9911 69.6187 50.2178 69.6187 53.9865C69.6187 55.8541 69.9258 57.5883 70.5483 59.1808H37.8682V35.7186H101.56V59.1808H101.568ZM35.4526 44.9151L33.1118 46.0823C32.6885 45.4653 32.207 44.8734 31.6675 44.2981C29.1523 41.605 26.0977 40.2793 22.5283 40.2793C18.9341 40.2793 15.8711 41.605 13.356 44.2981C10.8408 46.9661 9.5708 50.2011 9.5708 53.9781C9.5708 55.2538 10.0024 58.0302 10.293 59.1808H0C0 49.5008 0 39.8207 0 30.1324C0 26.3554 2.39893 24.4627 7.21338 24.4627H9.91943L16.8589 9.94685C17.8218 7.62897 19.5649 6.47837 22.0303 6.47837H35.4526V44.9151ZM31.02 31.1329V14.3992H19.0669L12.7417 31.1412H31.02V31.1329Z" fill="white"/>
</svg>
